<?xml version="1.0" encoding="UTF-8"?>
<svg width="563px" height="507px" viewBox="0 0 563 507" version="1.1" xmlns="http://www.w3.org/2000/svg" xmlns:xlink="http://www.w3.org/1999/xlink">
    <!-- Generator: Sketch 52.3 (67297) - http://www.bohemiancoding.com/sketch -->
    <title>Clue 4: IN TV STAND</title>
    <desc>Created with Sketch.</desc>
    <defs>
        <style type="text/css"><![CDATA[
                #Oval {
                    animation: pulsate 2s infinite;
                }
                @keyframes pulsate {
                    0% {
                        opacity: 1;
                    }
                    66% {
                        opacity: 0;
                    }
                    100% { 
                        opacity: 1;
                    }
                }
        ]]></style>
    </defs>
    <g id="Clue-4:-IN-TV-STAND" stroke="none" stroke-width="1" fill="none" fill-rule="evenodd">
        <polygon id="Path" stroke="#000000" stroke-width="2" fill-rule="nonzero" points="63.453125 34 534.382813 34 536.574219 479.503906 418.546875 479.503906 418.546875 356.777344 282.410156 356.777344 282.410156 300.824219 223.246094 300.824219 223.246094 251.003906 27 251.003906 27 162.191406 63.453125 162.191406"></polygon>
        <polyline id="Path-2" stroke="#000000" stroke-width="2" fill-rule="nonzero" points="282 302.289062 282 224 534.292969 224"></polyline>
        <path d="M418,357.5 L534.5,357.5" id="Path-3" stroke="#000000" stroke-width="2" fill-rule="nonzero"></path>
        <polyline id="Path-4" stroke="#000000" stroke-width="2" fill-rule="nonzero" points="341 223.777344 341 177 533.90625 177"></polyline>
        <polyline id="Path-5" stroke="#000000" stroke-width="2" fill-rule="nonzero" points="341.386719 177.101562 281 177.101562 281 34"></polyline>
        <polyline id="Path-6" stroke="#000000" stroke-width="2" fill-rule="nonzero" points="133 165 224.453125 165 224.453125 197.527344"></polyline>
        <path d="M223.5,251.183594 L223.5,224" id="Path-7" stroke="#000000" stroke-width="2" fill-rule="nonzero"></path>
        <circle id="Oval" fill="red" fill-rule="nonzero" cx="311.5" cy="210.5" r="7"></circle>
    </g>
</svg>